<svg width="285" height="188" viewBox="0 0 285 188" fill="none" xmlns="http://www.w3.org/2000/svg">
<path d="M234.018 94.4172C231.452 94.4172 229.15 93.9653 227.113 93.0614C225.076 92.1198 223.453 90.8582 222.246 89.2763C221.076 87.6945 220.435 85.9432 220.322 84.0224H228.302C228.452 85.2276 229.037 86.2257 230.056 87.0166C231.112 87.8075 232.414 88.203 233.961 88.203C235.47 88.203 236.64 87.9017 237.47 87.2991C238.338 86.6965 238.772 85.9244 238.772 84.9828C238.772 83.966 238.243 83.2127 237.187 82.7231C236.168 82.1958 234.527 81.6309 232.263 81.0283C229.924 80.4634 228 79.8796 226.491 79.277C225.019 78.6744 223.736 77.7517 222.642 76.5088C221.586 75.266 221.057 73.59 221.057 71.4809C221.057 69.7484 221.548 68.1666 222.529 66.7355C223.548 65.3043 224.981 64.1744 226.83 63.3458C228.717 62.5173 230.924 62.103 233.452 62.103C237.187 62.103 240.168 63.0445 242.394 64.9277C244.62 66.7731 245.846 69.2777 246.072 72.4413H238.489C238.375 71.1984 237.847 70.2192 236.904 69.5036C235.998 68.7504 234.772 68.3738 233.225 68.3738C231.792 68.3738 230.679 68.6374 229.886 69.1647C229.132 69.6919 228.754 70.4264 228.754 71.3679C228.754 72.4225 229.283 73.2322 230.339 73.7971C231.395 74.3244 233.037 74.8705 235.263 75.4354C237.526 76.0004 239.394 76.5841 240.866 77.1867C242.337 77.7893 243.601 78.7309 244.657 80.0114C245.752 81.2543 246.318 82.9114 246.355 84.9828C246.355 86.7906 245.846 88.4101 244.827 89.8413C243.846 91.2724 242.412 92.4023 240.526 93.2309C238.677 94.0218 236.508 94.4172 234.018 94.4172Z" fill="#4D0FFF"/>
<path d="M198.154 94.4172C195.135 94.4172 192.419 93.7582 190.004 92.44C187.589 91.0841 185.684 89.1822 184.288 86.7341C182.93 84.2861 182.251 81.4614 182.251 78.2601C182.251 75.0588 182.949 72.2341 184.345 69.7861C185.778 67.338 187.722 65.4549 190.174 64.1368C192.626 62.7809 195.362 62.103 198.38 62.103C201.399 62.103 204.134 62.7809 206.586 64.1368C209.039 65.4549 210.963 67.338 212.359 69.7861C213.793 72.2341 214.51 75.0588 214.51 78.2601C214.51 81.4614 213.774 84.2861 212.303 86.7341C210.869 89.1822 208.907 91.0841 206.417 92.44C203.964 93.7582 201.21 94.4172 198.154 94.4172ZM198.154 87.525C199.588 87.525 200.927 87.1861 202.172 86.5082C203.455 85.7926 204.474 84.738 205.228 83.3445C205.983 81.951 206.36 80.2562 206.36 78.2601C206.36 75.2848 205.568 73.0062 203.983 71.4244C202.436 69.8049 200.531 68.9952 198.267 68.9952C196.003 68.9952 194.098 69.8049 192.551 71.4244C191.042 73.0062 190.287 75.2848 190.287 78.2601C190.287 81.2354 191.023 83.5328 192.494 85.1523C194.004 86.7341 195.89 87.525 198.154 87.525Z" fill="#4D0FFF"/>
<path d="M162.775 62.1595C165.152 62.1595 167.264 62.6867 169.113 63.7413C170.962 64.7582 172.396 66.2835 173.414 68.3173C174.471 70.3134 174.999 72.7238 174.999 75.5484V93.9088H167.076V76.6218C167.076 74.1361 166.453 72.2341 165.208 70.916C163.963 69.5601 162.265 68.8822 160.115 68.8822C157.926 68.8822 156.191 69.5601 154.908 70.916C153.663 72.2341 153.04 74.1361 153.04 76.6218V93.9088H145.117V52.1036H153.04V66.5095C154.059 65.1536 155.417 64.0991 157.115 63.3458C158.813 62.5549 160.699 62.1595 162.775 62.1595Z" fill="#4D0FFF"/>
<path d="M112.986 67.1309C114.005 65.6997 115.401 64.5134 117.174 63.5718C118.985 62.5926 121.042 62.103 123.343 62.103C126.022 62.103 128.437 62.7621 130.587 64.0803C132.776 65.3984 134.492 67.2816 135.737 69.7296C137.02 72.14 137.662 74.9458 137.662 78.1471C137.662 81.3484 137.02 84.1919 135.737 86.6776C134.492 89.1257 132.776 91.0276 130.587 92.3835C128.437 93.7393 126.022 94.4172 123.343 94.4172C121.042 94.4172 119.004 93.9465 117.231 93.0049C115.495 92.0633 114.081 90.877 112.986 89.4458V108.823H105.063V62.6114H112.986V67.1309ZM129.569 78.1471C129.569 76.264 129.172 74.6445 128.38 73.2887C127.626 71.8952 126.607 70.8406 125.324 70.1251C124.079 69.4095 122.721 69.0517 121.249 69.0517C119.815 69.0517 118.457 69.4283 117.174 70.1816C115.929 70.8971 114.911 71.9517 114.118 73.3452C113.364 74.7387 112.986 76.377 112.986 78.2601C112.986 80.1432 113.364 81.7815 114.118 83.175C114.911 84.5686 115.929 85.6419 117.174 86.3952C118.457 87.1108 119.815 87.4685 121.249 87.4685C122.721 87.4685 124.079 87.0919 125.324 86.3387C126.607 85.5854 127.626 84.5121 128.38 83.1186C129.172 81.725 129.569 80.0679 129.569 78.1471Z" fill="#4D0FFF"/>
<path d="M81.1974 94.4172C78.179 94.4172 75.4625 93.7582 73.0478 92.44C70.6331 91.0841 68.7277 89.1822 67.3317 86.7341C65.9734 84.2861 65.2943 81.4614 65.2943 78.2601C65.2943 75.0588 65.9923 72.2341 67.3883 69.7861C68.822 67.338 70.7651 65.4549 73.2176 64.1368C75.67 62.7809 78.4054 62.103 81.4238 62.103C84.4422 62.103 87.1776 62.7809 89.63 64.1368C92.0825 65.4549 94.0067 67.338 95.4027 69.7861C96.8364 72.2341 97.5533 75.0588 97.5533 78.2601C97.5533 81.4614 96.8175 84.2861 95.3461 86.7341C93.9124 89.1822 91.9504 91.0841 89.4602 92.44C87.0078 93.7582 84.2535 94.4172 81.1974 94.4172ZM81.1974 87.525C82.6311 87.525 83.9706 87.1861 85.2156 86.5082C86.4985 85.7926 87.5172 84.738 88.2718 83.3445C89.0263 81.951 89.4036 80.2562 89.4036 78.2601C89.4036 75.2848 88.6113 73.0062 87.0267 71.4244C85.4797 69.8049 83.5744 68.9952 81.3106 68.9952C79.0468 68.9952 77.1415 69.8049 75.5945 71.4244C74.0854 73.0062 73.3308 75.2848 73.3308 78.2601C73.3308 81.2354 74.0665 83.5328 75.5379 85.1523C77.0471 86.7341 78.9336 87.525 81.1974 87.525Z" fill="#4D0FFF"/>
<path d="M44.7292 94.3042C41.9749 94.3042 39.4847 93.8335 37.2587 92.8919C35.0704 91.9504 33.3348 90.5945 32.052 88.8244C30.7692 87.0543 30.1089 84.964 30.0712 82.5536H38.5604C38.6736 84.1731 39.2395 85.4536 40.2582 86.3952C41.3146 87.3367 42.7484 87.8075 44.5594 87.8075C46.4082 87.8075 47.8608 87.3744 48.9172 86.5081C49.9736 85.6043 50.5018 84.4367 50.5018 83.0056C50.5018 81.838 50.1434 80.8776 49.4265 80.1244C48.7097 79.3711 47.8042 78.7874 46.71 78.3731C45.6536 77.9211 44.1821 77.4315 42.2956 76.9043C39.73 76.151 37.636 75.4166 36.0136 74.701C34.429 73.9478 33.0518 72.8367 31.8822 71.3679C30.7503 69.8614 30.1844 67.8653 30.1844 65.3796C30.1844 63.0445 30.7692 61.0108 31.9388 59.2783C33.1084 57.5458 34.7497 56.2277 36.8625 55.3238C38.9754 54.3822 41.3901 53.9114 44.1066 53.9114C48.1815 53.9114 51.4828 54.9095 54.0107 56.9056C56.5763 58.864 57.9912 61.6134 58.2553 65.1536H49.5397C49.4643 63.7978 48.8795 62.6867 47.7853 61.8205C46.7289 60.9166 45.314 60.4647 43.5407 60.4647C41.9938 60.4647 40.7487 60.8601 39.8055 61.651C38.8999 62.4419 38.4472 63.5906 38.4472 65.0971C38.4472 66.1517 38.7867 67.0367 39.4659 67.7523C40.1828 68.4302 41.0505 68.9952 42.0692 69.4471C43.1257 69.8614 44.5971 70.351 46.4836 70.916C49.0492 71.6692 51.1433 72.4224 52.7656 73.1757C54.388 73.9289 55.784 75.0588 56.9536 76.5653C58.1233 78.0718 58.7081 80.0491 58.7081 82.4971C58.7081 84.6062 58.161 86.5646 57.0668 88.3724C55.9727 90.1802 54.3691 91.6302 52.2563 92.7224C50.1434 93.777 47.6344 94.3042 44.7292 94.3042Z" fill="#4D0FFF"/>
<path d="M262.11 132.97V128.488L258.797 121.908H259.621L261.303 125.366C261.493 125.768 261.684 126.166 261.875 126.557C262.065 126.949 262.261 127.352 262.463 127.766H262.53C262.755 127.352 262.968 126.949 263.169 126.557C263.371 126.166 263.562 125.768 263.741 125.366L265.423 121.908H266.213L262.884 128.488V132.97H262.11Z" fill="#4D0FFF"/>
<path d="M233.275 132.97V122.579H229.743V121.908H237.58V122.579H234.048V132.97H233.275Z" fill="#4D0FFF"/>
<path d="M205.994 132.97V121.908H206.768V132.97H205.994Z" fill="#4D0FFF"/>
<path d="M179.264 133.171C178.457 133.171 177.74 133.015 177.112 132.701C176.495 132.388 175.963 131.991 175.514 131.509L176.002 131.006C176.394 131.454 176.871 131.812 177.431 132.08C178.003 132.338 178.614 132.466 179.264 132.466C180.116 132.466 180.789 132.265 181.282 131.862C181.776 131.448 182.022 130.911 182.022 130.25C182.022 129.792 181.933 129.422 181.753 129.143C181.574 128.863 181.333 128.633 181.03 128.454C180.727 128.275 180.397 128.102 180.038 127.934L178.356 127.179C178.02 127.033 177.678 126.848 177.33 126.625C176.994 126.401 176.703 126.115 176.456 125.768C176.221 125.41 176.103 124.963 176.103 124.426C176.103 123.888 176.243 123.418 176.523 123.015C176.804 122.601 177.185 122.282 177.667 122.059C178.149 121.824 178.704 121.706 179.332 121.706C180.004 121.706 180.604 121.835 181.131 122.092C181.658 122.35 182.084 122.657 182.409 123.015L181.989 123.519C181.652 123.183 181.26 122.915 180.811 122.713C180.374 122.512 179.881 122.411 179.332 122.411C178.603 122.411 178.009 122.59 177.549 122.948C177.101 123.306 176.876 123.788 176.876 124.392C176.876 124.817 176.977 125.164 177.179 125.433C177.392 125.701 177.65 125.92 177.953 126.087C178.255 126.255 178.536 126.401 178.793 126.524L180.475 127.262C180.901 127.453 181.294 127.671 181.652 127.917C182.011 128.152 182.291 128.449 182.493 128.807C182.706 129.165 182.813 129.629 182.813 130.2C182.813 130.76 182.667 131.269 182.375 131.728C182.095 132.175 181.686 132.528 181.148 132.785C180.621 133.043 179.993 133.171 179.264 133.171Z" fill="#4D0FFF"/>
<path d="M146.602 132.97V121.908H149.78C150.509 121.908 151.142 122.003 151.68 122.193C152.23 122.383 152.656 122.696 152.958 123.133C153.261 123.558 153.413 124.123 153.413 124.828C153.413 125.5 153.261 126.065 152.958 126.524C152.656 126.971 152.23 127.313 151.68 127.548C151.142 127.772 150.509 127.884 149.78 127.884H147.375V132.97H146.602ZM147.375 127.246H149.578C150.565 127.246 151.316 127.05 151.832 126.658C152.359 126.255 152.622 125.645 152.622 124.828C152.622 124 152.359 123.418 151.832 123.083C151.316 122.736 150.565 122.562 149.578 122.562H147.375V127.246ZM152.74 132.97L149.595 127.665L150.335 127.447L153.631 132.97H152.74Z" fill="#4D0FFF"/>
<path d="M117.094 132.97V121.908H123.165V122.579H117.868V126.759H122.307V127.43H117.868V132.298H123.333V132.97H117.094Z" fill="#4D0FFF"/>
<path d="M90.0159 132.97L86.4171 121.908H87.2411L89.2255 128.37C89.3712 128.829 89.5058 129.254 89.6291 129.646C89.7524 130.038 89.8757 130.43 89.9991 130.821C90.1224 131.202 90.2569 131.616 90.4027 132.063H90.4699C90.6045 131.616 90.7334 131.202 90.8567 130.821C90.98 130.43 91.1034 130.038 91.2267 129.646C91.35 129.254 91.4845 128.829 91.6303 128.37L93.7492 121.908H94.5396L90.8399 132.97H90.0159Z" fill="#4D0FFF"/>
<path d="M63.0884 132.97V121.908H63.8619V132.97H63.0884Z" fill="#4D0FFF"/>
<path d="M31.5446 132.97V121.908H32.3854L37.0268 129.68C37.2398 130.049 37.4528 130.424 37.6658 130.804C37.8788 131.174 38.0806 131.543 38.2712 131.912H38.3385C38.3273 131.375 38.3049 130.838 38.2712 130.301C38.2488 129.764 38.2376 129.226 38.2376 128.689V121.908H38.9775V132.97H38.1367L33.4953 125.198C33.2823 124.828 33.0693 124.453 32.8563 124.073C32.6432 123.692 32.4414 123.323 32.2509 122.965H32.1836C32.206 123.48 32.2284 123.995 32.2509 124.509C32.2733 125.024 32.2845 125.556 32.2845 126.104V132.97H31.5446Z" fill="#4D0FFF"/>
<path d="M3.71649 133.171C3.24562 133.171 2.78597 133.104 2.33752 132.97C1.88908 132.824 1.49108 132.589 1.14354 132.265C0.79599 131.929 0.515712 131.476 0.302701 130.905C0.1009 130.323 0 129.601 0 128.74V121.908H0.773568V128.656C0.773568 129.629 0.908102 130.396 1.17717 130.956C1.45745 131.515 1.82181 131.907 2.27026 132.131C2.7187 132.354 3.20078 132.466 3.71649 132.466C4.25463 132.466 4.75352 132.354 5.21318 132.131C5.67284 131.907 6.0428 131.515 6.32308 130.956C6.60336 130.396 6.7435 129.629 6.7435 128.656V121.908H7.46662V128.74C7.46662 129.601 7.36011 130.323 7.1471 130.905C6.9453 131.476 6.66502 131.929 6.30626 132.265C5.94751 132.589 5.54391 132.824 5.09546 132.97C4.65823 133.104 4.19857 133.171 3.71649 133.171Z" fill="#4D0FFF"/>
<path fill-rule="evenodd" clip-rule="evenodd" d="M279 93.9087C279 142.289 239.707 181.526 191.215 181.526C162.658 181.526 137.292 167.919 121.261 146.851H113.856C130.76 171.416 159.103 187.526 191.215 187.526C243.011 187.526 285 145.612 285 93.9087C285 42.2051 243.011 0.291016 191.215 0.291016C161.116 0.291016 134.329 14.4441 117.169 36.4469H124.943C141.035 17.9726 164.756 6.29102 191.215 6.29102C239.707 6.29102 279 45.5289 279 93.9087Z" fill="#4D0FFF"/>
</svg>
